<?xml version="1.0" standalone="no"?>
<!DOCTYPE svg PUBLIC "-//W3C//DTD SVG 20010904//EN"
 "http://www.w3.org/TR/2001/REC-SVG-20010904/DTD/svg10.dtd">
<svg version="1.0" xmlns="http://www.w3.org/2000/svg"
 width="310.000000pt" height="310.000000pt" viewBox="0 0 310.000000 310.000000"
 preserveAspectRatio="xMidYMid meet">
<metadata>
Created by potrace 1.11, written by Peter Selinger 2001-2013
</metadata>
<g transform="translate(0.000000,310.000000) scale(0.100000,-0.100000)"
fill="#000000" stroke="none">
<path d="M1326 2694 c-650 -273 -968 -412 -987 -430 -40 -38 -61 -88 -61 -144
1 -54 86 -271 129 -328 23 -30 24 -36 13 -85 -8 -37 -10 -272 -8 -812 l3 -760
23 -37 c13 -21 46 -51 73 -68 l49 -30 1056 0 c1024 0 1056 1 1093 19 56 29 97
81 110 141 15 71 15 1469 0 1540 -14 65 -75 133 -134 149 -28 7 -306 11 -895
11 -521 0 -849 4 -839 10 8 5 359 153 780 330 420 176 781 332 801 345 21 14
47 43 58 66 35 67 29 119 -31 263 -57 140 -82 177 -140 206 -81 42 -55 51
-1093 -386z m1071 136 c63 -143 64 -139 -67 -194 -60 -25 -112 -46 -115 -46
-8 0 -6 274 3 285 10 15 104 55 122 52 8 -1 34 -45 57 -97z m-299 -146 l-3
-147 -175 -73 c-96 -41 -178 -74 -182 -74 -5 0 -8 62 -8 139 0 103 3 141 13
150 14 11 336 150 350 151 4 0 6 -66 5 -146z m-478 -197 c0 -73 -4 -137 -8
-144 -7 -11 -334 -153 -353 -153 -12 0 -11 261 1 280 10 16 340 160 353 153 4
-2 7 -64 7 -136z m-480 -199 c0 -73 -4 -139 -8 -146 -8 -12 -292 -137 -339
-148 l-24 -6 3 143 3 144 40 19 c85 41 291 124 308 125 15 1 17 -12 17 -131z
m-480 -207 c0 -152 2 -147 -66 -174 -39 -15 -43 -15 -56 1 -22 26 -90 198 -86
218 2 12 33 31 88 55 128 57 120 63 120 -100z m160 -400 c0 -9 -28 -75 -87
-203 l-27 -58 -63 0 -63 0 0 123 c0 82 4 127 12 135 14 14 228 17 228 3z m520
2 c0 -5 -25 -65 -56 -135 l-57 -128 -194 0 c-109 0 -193 4 -193 9 0 8 20 55
89 214 l20 47 196 0 c107 0 195 -3 195 -7z m520 0 c0 -5 -25 -64 -55 -133
l-54 -125 -196 -3 c-107 -1 -195 1 -195 6 0 5 18 51 41 103 22 52 47 109 54
127 l14 32 195 0 c108 0 196 -3 196 -7z m520 0 c0 -5 -25 -64 -55 -133 l-54
-125 -196 -3 c-122 -1 -195 1 -195 7 0 6 18 52 41 103 22 51 47 108 54 126
l14 32 195 0 c108 0 196 -3 196 -7z m270 -13 c6 -12 9 -66 8 -132 l-3 -113
-127 -3 c-79 -2 -128 1 -128 7 0 6 18 52 41 103 22 51 47 108 54 126 14 31 15
32 79 32 55 0 67 -3 76 -20z m-6 -426 c14 -5 16 -61 16 -521 0 -335 -4 -521
-10 -534 -10 -19 -32 -19 -1025 -19 -557 0 -1020 3 -1029 6 -14 5 -16 62 -16
533 0 290 3 531 7 534 8 9 2036 9 2057 1z"/>
<path d="M795 896 c-56 -25 -66 -85 -22 -133 l20 -23 459 0 459 0 24 25 c34
33 34 83 -1 116 l-26 24 -441 2 c-351 2 -448 0 -472 -11z"/>
<path d="M766 529 c-30 -35 -32 -49 -11 -89 25 -49 50 -51 522 -48 l431 3 26
24 c35 33 35 83 1 116 l-24 25 -460 0 -459 0 -26 -31z"/>
</g>
</svg>
